<?xml version="1.0" encoding="utf-8"?>
<!-- Generator: Adobe Illustrator 18.1.1, SVG Export Plug-In . SVG Version: 6.00 Build 0)  -->
<!DOCTYPE svg PUBLIC "-//W3C//DTD SVG 1.1//EN" "http://www.w3.org/Graphics/SVG/1.1/DTD/svg11.dtd">
<svg version="1.1" id="Layer_1" xmlns="http://www.w3.org/2000/svg" xmlns:xlink="http://www.w3.org/1999/xlink" x="0px" y="0px"
	 viewBox="0 0 251.4 100.7" enable-background="new 0 0 251.4 100.7" xml:space="preserve">
<g>
	<path fill="#FFFFFF" d="M2.3,44.8V0.7h26.7v4.5H7.2V19h12.6v4.5H7.2v16.8h22.7v4.5H2.3z"/>
	<path fill="#FFFFFF" d="M95.3,45.5c-10.8,0-17.8-9.8-17.8-22.7C77.5,9.7,84.9,0,95.5,0c6.1,0,10.6,2.3,14.1,7.1l-3.9,3
		c-2.8-3.8-5.5-5.5-10.3-5.5c-7.6,0-13,7.5-13,18.2c0,10.8,5.7,18.3,13.1,18.3c7.4,0,11.4-4.5,11.4-13.2v-0.4h-7.9V23h12.7v4.3
		C111.7,39.4,104.7,45.5,95.3,45.5z"/>
	<path fill="#FFFFFF" d="M137.2,45.5c-11,0-18.2-9.4-18.2-22.7C119,9.5,126.4,0,137.4,0s18.3,9.4,18.3,22.7
		C155.7,36,148.2,45.5,137.2,45.5z M137.2,4.5c-7.6,0-13.2,7.1-13.2,18.2S129.7,41,137.4,41c7.6,0,13.3-7.1,13.3-18.2
		S144.9,4.5,137.2,4.5z"/>
	<path fill="#FFFFFF" d="M17.1,100.7c-7.4,0-13.8-3.1-17.1-8L6.4,87c3.1,3.6,7.1,5,11.3,5c5.2,0,7.7-1.5,7.7-4.8
		c0-2.8-1.5-4.1-9.8-6C7.4,79.4,1.7,76.8,1.7,68.1c0-8,7.1-12.9,15.8-12.9c6.9,0,11.9,2.6,16.1,6.9l-6.4,6.2c-2.8-2.9-6-4.5-10-4.5
		c-4.7,0-6.3,2-6.3,4c0,2.8,1.9,3.7,8.9,5.3c7,1.6,14.8,4,14.8,13.6C34.5,95,29.2,100.7,17.1,100.7z"/>
	<path fill="#FFFFFF" d="M62.4,84.4h-9.7V100h-8.8V55.9h19.3c8.3,0,15.2,4.6,15.2,14C78.3,80.1,71.5,84.4,62.4,84.4z M62.8,64.4
		H52.6v11.3h10.3c4.1,0,6.3-1.9,6.3-5.7S66.7,64.4,62.8,64.4z"/>
	<path fill="#FFFFFF" d="M113.6,100V81.5H95.5V100h-8.8V55.9h8.8v16.9h18.1V55.9h8.8V100H113.6z"/>
	<path fill="#FFFFFF" d="M133.8,100V55.9h30.6v8.6h-21.8v7.6h12.7v8.6h-12.7v10.7h22.8v8.6H133.8z"/>
	<path fill="#FFFFFF" d="M200.4,100l-7.9-15.9h-8.9V100h-8.8V55.9h20.6c8.3,0,15.2,4.6,15.2,14c0,6.6-2.8,10.8-8.4,13l8.4,17.1
		H200.4z M195.1,64.4h-11.5v11.3h11.5c4.1,0,6.3-1.9,6.3-5.7C201.4,66.1,199,64.4,195.1,64.4z"/>
	<path fill="#FFFFFF" d="M219.8,100V55.9h30.6v8.6h-21.8v7.6h12.7v8.6h-12.7v10.7h22.8v8.6H219.8z"/>
</g>
<path fill="#FFFFFF" d="M70.5,13.2c0-8.5-6-12.5-13.7-12.5H39.3v44.1h4.9V5.2h12.4c5.9,0,9,2.8,9,8.2c0,5.5-3.1,8.3-9.6,8.3h-3.5
	l11.7,23.2h5.7l-9.7-19.2C66.4,24.3,70.5,20,70.5,13.2z"/>
</svg>
